<svg width="24" height="24" viewBox="0 0 24 24" fill="none" xmlns="http://www.w3.org/2000/svg">
<mask id="mask0_503_32222" style="mask-type:alpha" maskUnits="userSpaceOnUse" x="2" y="2" width="20" height="20">
<path fill-rule="evenodd" clip-rule="evenodd" d="M4.92961 4.92961C8.8325 1.02672 15.1674 1.02672 19.0703 4.92961C22.9732 8.8325 22.9732 15.1674 19.0703 19.0703C15.1674 22.9732 8.8325 22.9732 4.92961 19.0703C1.02672 15.1674 1.02672 8.8325 4.92961 4.92961ZM12 8C12.5523 8 13 8.44772 13 9V11.5858L15.9571 14.5429C16.3476 14.9334 16.3476 15.5666 15.9571 15.9571C15.5666 16.3476 14.9334 16.3476 14.5429 15.9571L11.2982 12.7124C11.2799 12.6943 11.2622 12.6756 11.2453 12.6561C11.0925 12.4805 11 12.2509 11 11.9998V9C11 8.44772 11.4477 8 12 8Z" fill="#121331"/>
</mask>
<g mask="url(#mask0_503_32222)">
<path d="M18.5399 18.5399C14.9299 22.1499 9.06994 22.1499 5.45994 18.5399C1.84994 14.9299 1.84994 9.06994 5.45994 5.45994C9.06994 1.84994 14.9299 1.84994 18.5399 5.45994C22.1499 9.06994 22.1499 14.9299 18.5399 18.5399Z" fill="#121331" stroke="#121331" stroke-width="1.5" stroke-miterlimit="10"/>
</g>
</svg>
